<svg width="20" height="21" viewBox="0 0 20 21" fill="none" xmlns="http://www.w3.org/2000/svg">
<path fill-rule="evenodd" clip-rule="evenodd" d="M10 0.5C4.477 0.5 0 4.977 0 10.5C0 16.023 4.477 20.5 10 20.5C15.523 20.5 20 16.023 20 10.5C20 4.977 15.523 0.5 10 0.5ZM10 1.5C10 3.88695 9.05179 6.17613 7.36396 7.86396C5.67613 9.55179 3.38695 10.5 1 10.5C3.38695 10.5 5.67613 11.4482 7.36396 13.136C9.05179 14.8239 10 17.1131 10 19.5C10 17.1131 10.9482 14.8239 12.636 13.136C14.3239 11.4482 16.6131 10.5 19 10.5C16.6131 10.5 14.3239 9.55179 12.636 7.86396C10.9482 6.17613 10 3.88695 10 1.5Z" fill="#FFD048"/>
</svg>
